#!OML:ASF E:\motion texture\Top Level 1\Subject 1\Session 1\male.ASF
:FULLY-SPECIFIED
:DEGREES
127
root 36.8869 16.8126 5.48201 34.564 -75.9964 -27.7957
lowerback 7.22859 0.319449 6.43422
upperback 0.346084 1.01155 5.15188
thorax -3.6832 0.37438 1.64475
lowerneck -15.4578 0.557648 -6.23831
upperneck 4.7159 1.94559 -0.499884
head 3.83646 0.778583 0.985876
rclavicle 2.98177e-015 3.26007e-014
rhumerus -1.36919 34.3377 -74.5371
rradius 71.2896
rwrist 12.8767
rhand -27.5622 -25.0694
rfingers 7.12502
rthumb -0.963096 -55.0469
lclavicle 2.98177e-015 3.26007e-014
lhumerus -6.76897 -19.8692 96.4676
lradius 63.0107
lwrist -8.9772
lhand -15.3313 24.6356
lfingers 7.12502
lthumb 10.8452 54.3356
rfemur -24.2363 -5.26242 13.7304
rtibia 43.6952
rfoot -15.9681 -10.3557
rtoes -17.4754
lfemur -45.7607 7.09937 -12.0788
ltibia 52.1213
lfoot -7.34955 -10.5121
ltoes -7.95196
128
root 36.7758 16.7846 5.50664 33.9726 -75.3435 -27.4704
lowerback 7.48667 0.255527 6.67726
upperback 0.44363 0.963044 5.24155
thorax -3.72479 0.344467 1.60792
lowerneck -15.4077 0.501699 -6.27152
upperneck 4.61398 1.87795 -0.598635
head 3.79987 0.740852 0.954668
rclavicle -1.70955e-014 7.95139e-016
rhumerus -0.913283 34.6617 -74.5499
rradius 70.9685
rwrist 12.7457
rhand -27.7907 -25.1938
rfingers 7.12502
rthumb -1.1838 -55.1703
lclavicle -1.70955e-014 7.95139e-016
lhumerus -6.22088 -20.0062 96.4457
lradius 62.8163
lwrist -8.5875
lhand -15.0583 24.8292
lfingers 7.12502
lthumb 11.1086 54.5152
rfemur -23.6861 -5.3268 13.6651
rtibia 43.1994
rfoot -16.3111 -10.6628
rtoes -17.9698
lfemur -46.0746 7.49097 -11.699
ltibia 52.4837
lfoot -7.60412 -10.0072
ltoes -8.90376
129
root 36.664 16.757 5.53309 33.4524 -74.6976 -27.2054
lowerback 7.72615 0.197036 6.90936
upperback 0.537042 0.920478 5.32366
thorax -3.76019 0.317918 1.56916
lowerneck -15.3604 0.441584 -6.31021
upperneck 4.51746 1.80502 -0.685311
head 3.7653 0.701094 0.9278
rclavicle -4.7112e-014 1.74931e-014
rhumerus -0.450182 35.0074 -74.581
rradius 70.6486
rwrist 12.6169
rhand -28.0066 -25.3063
rfingers 7.12502
rthumb -1.39226 -55.2815
lclavicle -4.7112e-014 1.74931e-014
lhumerus -5.68596 -20.1238 96.4349
lradius 62.6266
lwrist -8.18434
lhand -14.7717 25.0278
lfingers 7.12502
lthumb 11.3849 54.6987
rfemur -23.0901 -5.38792 13.6301
rtibia 42.7135
rfoot -16.6285 -10.9605
rtoes -18.4453
lfemur -46.3781 7.86762 -11.2933
ltibia 52.7302
lfoot -7.84518 -9.43068
ltoes -9.84017
130
root 36.5515 16.73 5.56158 32.9872 -74.0593 -26.9846
lowerback 7.94843 0.143629 7.12767
upperback 0.626526 0.883096 5.39833
thorax -3.79001 0.29442 1.53012
lowerneck -15.3159 0.377642 -6.3558
upperneck 4.42652 1.72745 -0.758273
head 3.7328 0.65968 0.906043
rclavicle -7.35503e-015 -1.03368e-014
rhumerus 0.0217312 35.3763 -74.6268
rradius 70.3332
rwrist 12.489
rhand -28.2043 -25.4141
rfingers 7.12502
rthumb -1.58322 -55.388
lclavicle -7.35503e-015 -1.03368e-014
lhumerus -5.16534 -20.2232 96.4355
lradius 62.4454
lwrist -7.76793
lhand -14.4822 25.2491
lfingers 7.12502
lthumb 11.6641 54.9044
rfemur -22.4523 -5.44846 13.622
rtibia 42.2429
rfoot -16.9212 -11.2474
rtoes -18.9087
lfemur -46.6667 8.22568 -10.8656
ltibia 52.855
lfoot -8.07225 -8.7886
ltoes -10.7516
131
root 36.4383 16.7037 5.59234 32.5666 -73.4348 -26.7926
lowerback 8.15037 0.0965439 7.32655
upperback 0.71053 0.851683 5.46419
thorax -3.81414 0.274492 1.49231
lowerneck -15.2738 0.310932 -6.40651
upperneck 4.34156 1.6465 -0.819659
head 3.70242 0.61712 0.88854
rclavicle 3.06128e-014 6.91771e-014
rhumerus 0.501364 35.7682 -74.6873
rradius 70.0227
rwrist 12.3661
rhand -28.3939 -25.5123
rfingers 7.12502
rthumb -1.76634 -55.4847
lclavicle 3.06128e-014 6.91771e-014
lhumerus -4.66277 -20.3057 96.4471
lradius 62.277
lwrist -7.33848
lhand -14.1624 25.476
lfingers 7.12502
lthumb 11.9725 55.1136
rfemur -21.7839 -5.50739 13.6349
rtibia 41.795
rfoot -17.1932 -11.5214
rtoes -19.3442
lfemur -46.9402 8.56847 -10.4246
ltibia 52.8537
lfoot -8.28133 -8.09064
ltoes -11.6147
132
root 36.3244 16.6782 5.62561 32.1847 -72.828 -26.6208
lowerback 8.33086 0.0566046 7.50298
upperback 0.788327 0.826799 5.52046
thorax -3.83272 0.258479 1.45637
lowerneck -15.2324 0.242237 -6.46353
upperneck 4.26137 1.56321 -0.868053
head 3.67351 0.574015 0.875972
rclavicle 3.95581e-014 3.4191e-014
rhumerus 0.988996 36.1847 -74.7594
rradius 69.7199
rwrist 12.2461
rhand -28.5681 -25.5999
rfingers 7.12502
rthumb -1.9346 -55.5708
lclavicle 3.95581e-014 3.4191e-014
lhumerus -4.17902 -20.3714 96.4682
lradius 62.124
lwrist -6.89475
lhand -13.8304 25.7407
lfingers 7.12502
lthumb 12.2926 55.3594
rfemur -21.0947 -5.56525 13.6643
rtibia 41.3754
rfoot -17.4404 -11.7839
rtoes -19.7633
lfemur -47.1976 8.89658 -9.97519
ltibia 52.7232
lfoot -8.46474 -7.34134
ltoes -12.4194
133
root 36.2097 16.6534 5.66162 31.8375 -72.2419 -26.4629
lowerback 8.48875 0.0242404 7.65493
upperback 0.859756 0.808498 5.56655
thorax -3.84527 0.246464 1.42271
lowerneck -15.1164 0.189837 -6.42784
upperneck 3.80779 1.4846 -1.05713
head 3.94701 0.52964 0.921507
rclavicle 1.78906e-015 3.18055e-014
rhumerus 1.48824 36.6297 -74.8389
rradius 69.4292
rwrist 12.1183
rhand -28.7312 -25.6922
rfingers 7.12502
rthumb -2.09211 -55.6617
lclavicle 1.78906e-015 3.18055e-014
lhumerus -3.7156 -20.4202 96.4971
lradius 61.9895
lwrist -6.43285
lhand -13.4963 26.0355
lfingers 7.12502
lthumb 12.6147 55.6346
rfemur -20.3915 -5.62241 13.7065
rtibia 40.9874
rfoot -17.6641 -12.0388
rtoes -20.1251
lfemur -47.4371 9.21213 -9.52204
ltibia 52.4622
lfoot -8.61463 -6.5429
ltoes -13.1356
